<svg width="20" height="20" viewBox="0 0 20 20" fill="none" xmlns="http://www.w3.org/2000/svg">
<g clip-path="url(#clip0_1_296)">
<path d="M14.5743 3.58894L11.1049 0.119551C11.0269 0.0415102 10.9225 0.00102041 10.8163 0.000979592V0H0.408163C0.182735 0 0 0.182735 0 0.408163V19.5918C0 19.8173 0.182735 20 0.408163 20H14.2857C14.5111 20 14.6939 19.8173 14.6939 19.5918V3.87755H14.6929C14.6929 3.77139 14.6524 3.66698 14.5743 3.58894ZM11.2245 1.39355L13.3003 3.46939H11.2245V1.39355ZM13.8776 19.1837H0.816326V0.816326H10.4082V3.87755C10.4082 4.10298 10.5909 4.28571 10.8163 4.28571H13.8776V19.1837Z" fill="#3C7098"/>
<path d="M19.1837 9.59185V15.9184H18.5714V4.89798H18.5709C18.5709 4.84483 18.5611 4.79149 18.54 4.741L17.5196 2.29202C17.4562 2.13989 17.3076 2.04083 17.1429 2.04083C16.9781 2.04083 16.8295 2.13989 16.7661 2.29202L15.7457 4.741C15.7246 4.79149 15.7148 4.84483 15.7148 4.89798H15.7143V19.5919C15.7143 19.8173 15.897 20 16.1224 20H18.1633C18.3887 20 18.5714 19.8173 18.5714 19.5919V16.7347H19.5918C19.8173 16.7347 20 16.552 20 16.3265V9.59185H19.1837ZM17.1429 3.51022L17.551 4.48981H16.7347L17.1429 3.51022ZM17.7551 19.1837H16.5306V16.7347H17.7551V19.1837ZM17.7551 15.9184H16.5306V5.30614H17.7551V15.9184Z" fill="#3C7098"/>
<path d="M5.10204 5.51019H3.06122C2.8358 5.51019 2.65306 5.69293 2.65306 5.91836V7.95917C2.65306 8.1846 2.8358 8.36734 3.06122 8.36734H5.10204C5.32747 8.36734 5.5102 8.1846 5.5102 7.95917V5.91836C5.5102 5.69293 5.32747 5.51019 5.10204 5.51019ZM4.69388 7.55101H3.46939V6.32652H4.69388V7.55101Z" fill="#3C7098"/>
<path d="M5.10204 10H3.06122C2.8358 10 2.65306 10.1827 2.65306 10.4082V12.449C2.65306 12.6744 2.8358 12.8571 3.06122 12.8571H5.10204C5.32747 12.8571 5.5102 12.6744 5.5102 12.449V10.4082C5.5102 10.1827 5.32747 10 5.10204 10ZM4.69388 12.0408H3.46939V10.8163H4.69388V12.0408Z" fill="#3C7098"/>
<path d="M5.10204 14.4898H3.06122C2.8358 14.4898 2.65306 14.6725 2.65306 14.898V16.9388C2.65306 17.1642 2.8358 17.3469 3.06122 17.3469H5.10204C5.32747 17.3469 5.5102 17.1642 5.5102 16.9388V14.898C5.5102 14.6725 5.32747 14.4898 5.10204 14.4898ZM4.69388 16.5306H3.46939V15.3061H4.69388V16.5306Z" fill="#3C7098"/>
<path d="M8.16327 5.71429H6.12245V6.53062H8.16327V5.71429Z" fill="#3C7098"/>
<path d="M11.6327 7.34692H6.12245V8.16325H11.6327V7.34692Z" fill="#3C7098"/>
<path d="M8.16327 10.2041H6.12245V11.0204H8.16327V10.2041Z" fill="#3C7098"/>
<path d="M11.6327 11.8367H6.12245V12.6531H11.6327V11.8367Z" fill="#3C7098"/>
<path d="M8.16327 14.6938H6.12245V15.5102H8.16327V14.6938Z" fill="#3C7098"/>
<path d="M11.6327 16.3265H6.12245V17.1429H11.6327V16.3265Z" fill="#3C7098"/>
</g>
<defs>
<clipPath id="clip0_1_296">
<rect width="20" height="20" fill="white"/>
</clipPath>
</defs>
</svg>
